<svg width="40" height="40" viewBox="0 0 40 40" fill="none" xmlns="http://www.w3.org/2000/svg">
<path fill-rule="evenodd" clip-rule="evenodd" d="M20 40C31.0457 40 40 31.0457 40 20C40 8.9543 31.0457 0 20 0C8.9543 0 0 8.9543 0 20C0 31.0457 8.9543 40 20 40Z" fill="white"/>
<path d="M22.4286 26.5982C21.5469 26.9665 20.5871 27.1786 19.5714 27.1786C17.7969 27.1786 16.1786 26.5424 14.9063 25.5045C14.9063 25.5045 15.0067 25.5714 15.0737 25.6272C16.4799 22.5692 20.8214 21.0513 20.8214 21.0513C20.8326 21.0513 20.8549 21.0402 20.8661 21.0402C21.8929 23.7188 22.317 25.9509 22.4286 26.5982ZM20.3638 19.8237C20.2746 19.8571 20.1741 19.8795 20.0737 19.9129C20.0737 19.9129 16.1228 21.1853 14.125 24.7455C12.9643 23.4509 12.25 21.7321 12.25 19.8571C12.25 19.779 12.25 19.7009 12.2612 19.6228C12.3839 19.6228 16 19.7121 19.7723 18.5848C19.9844 18.9978 20.1853 19.4107 20.3638 19.8237ZM19.1696 17.4576C15.654 18.3839 12.596 18.3504 12.4062 18.3504C12.8862 16.0848 14.404 14.1987 16.4464 13.2388C16.5469 13.3728 17.8973 15.2031 19.1696 17.4576ZM26.8036 21.0179C26.4688 23.0603 25.308 24.8237 23.6674 25.9286C23.5893 25.4933 23.1987 23.3393 22.2388 20.6942C24.6049 20.3259 26.6473 20.9732 26.8036 21.0179ZM17.8192 12.7478C17.808 12.7478 17.7969 12.7589 17.7969 12.7589C17.808 12.7478 17.808 12.7478 17.8192 12.7478ZM24.404 14.3661C24.3817 14.3996 23.3438 15.9844 20.5871 17.0112C19.3371 14.7121 17.9531 12.8929 17.8415 12.7478C18.3996 12.6138 18.9799 12.5357 19.5714 12.5357C21.4241 12.5357 23.1205 13.2277 24.404 14.3661ZM26.8929 19.779C26.8036 19.7679 24.3147 19.221 21.7924 19.5446C21.7366 19.4219 21.692 19.2879 21.6362 19.1652C21.4799 18.808 21.3125 18.4509 21.1451 18.1049C24.0357 16.9219 25.2076 15.2254 25.2299 15.2031C26.2567 16.4531 26.8705 18.0491 26.8929 19.779ZM28.1429 19.8571C28.1429 15.125 24.3036 11.2857 19.5714 11.2857C14.8393 11.2857 11 15.125 11 19.8571C11 24.5893 14.8393 28.4286 19.5714 28.4286C24.3036 28.4286 28.1429 24.5893 28.1429 19.8571Z" fill="#141414"/>
</svg>
