<svg width="40" height="40" viewBox="0 0 40 40" fill="none" xmlns="http://www.w3.org/2000/svg">
<path fill-rule="evenodd" clip-rule="evenodd" d="M20 40C31.0457 40 40 31.0457 40 20C40 8.9543 31.0457 0 20 0C8.9543 0 0 8.9543 0 20C0 31.0457 8.9543 40 20 40Z" fill="white"/>
<path d="M24.7031 9.99107C24.4018 9.94643 23.3638 9.85714 22.1585 9.85714C19.6362 9.85714 17.9063 11.3973 17.9063 14.221V16.654H15.0603V19.9576H17.9063V28.4286H21.3214V19.9576H24.1562L24.5915 16.654H21.3214V14.5446C21.3214 13.596 21.5781 12.9375 22.9509 12.9375H24.7031V9.99107Z" fill="#141414"/>
</svg>
