<svg width="40" height="40" viewBox="0 0 40 40" fill="none" xmlns="http://www.w3.org/2000/svg">
<path fill-rule="evenodd" clip-rule="evenodd" d="M20 40C31.0457 40 40 31.0457 40 20C40 8.9543 31.0457 0 20 0C8.9543 0 0 8.9543 0 20C0 31.0457 8.9543 40 20 40Z" fill="white"/>
<path d="M19.5714 11.2857C14.8393 11.2857 11 15.125 11 19.8571C11 23.6406 13.4554 26.8549 16.8594 27.9933C17.2946 28.0714 17.4509 27.8036 17.4509 27.5804C17.4509 27.3683 17.4397 26.6987 17.4397 25.9844C17.4397 25.9844 15.0513 26.4978 14.5491 24.9687C14.5491 24.9687 14.1585 23.9754 13.6004 23.7188C13.6004 23.7188 12.8192 23.183 13.6562 23.1942C13.6562 23.1942 14.5045 23.2612 14.9732 24.0759C15.721 25.3929 16.971 25.0134 17.4621 24.7902C17.5402 24.2433 17.7634 23.8638 18.0089 23.6406C16.1004 23.4286 14.1027 22.692 14.1027 19.4107C14.1027 18.4732 14.4375 17.7143 14.9844 17.1116C14.8951 16.8884 14.6049 16.0179 15.0737 14.8348C15.7879 14.6116 17.4286 15.7165 17.4286 15.7165C18.1094 15.5268 18.846 15.4263 19.5714 15.4263C20.2969 15.4263 21.0335 15.5268 21.7143 15.7165C21.7143 15.7165 23.3549 14.6116 24.0692 14.8348C24.5379 16.0179 24.2478 16.8884 24.1585 17.1116C24.7054 17.7143 25.0402 18.4732 25.0402 19.4107C25.0402 22.7031 23.0312 23.4286 21.1228 23.6406C21.4353 23.9085 21.7031 24.4219 21.7031 25.2254C21.7031 26.375 21.692 27.3013 21.692 27.5804C21.692 27.8036 21.8482 28.0714 22.2835 27.9933C25.6875 26.8549 28.1429 23.6406 28.1429 19.8571C28.1429 15.125 24.3036 11.2857 19.5714 11.2857ZM14.2478 23.596C14.2254 23.6406 14.1585 23.6518 14.1027 23.6183C14.0357 23.5848 14.0022 23.529 14.0246 23.4844C14.0469 23.4509 14.1027 23.4397 14.1696 23.4621C14.2366 23.4955 14.2701 23.5513 14.2478 23.596ZM14.5938 23.9754C14.5491 24.0201 14.471 23.9978 14.4152 23.942C14.3594 23.875 14.3482 23.7969 14.3929 23.7634C14.4375 23.7188 14.5156 23.7411 14.5714 23.7969C14.6272 23.8638 14.6384 23.942 14.5938 23.9754ZM14.9286 24.4777C14.8839 24.5112 14.7946 24.4777 14.7388 24.3996C14.683 24.3214 14.683 24.2321 14.7388 24.1987C14.7946 24.154 14.8839 24.1875 14.9286 24.2656C14.9844 24.3438 14.9844 24.433 14.9286 24.4777ZM15.3973 24.9464C15.3527 25.0022 15.2522 24.9911 15.1741 24.9129C15.096 24.846 15.0737 24.7455 15.1295 24.7009C15.1741 24.6451 15.2746 24.6562 15.3527 24.7344C15.4196 24.8013 15.442 24.9018 15.3973 24.9464ZM16.0335 25.2254C16.0112 25.2924 15.9107 25.3259 15.8214 25.2924C15.721 25.2701 15.654 25.192 15.6763 25.125C15.6987 25.058 15.7991 25.0246 15.8884 25.0469C15.9888 25.0804 16.0558 25.1585 16.0335 25.2254ZM16.7366 25.2812C16.7366 25.3482 16.6585 25.404 16.558 25.404C16.4464 25.4152 16.3683 25.3594 16.3683 25.2812C16.3683 25.2143 16.4464 25.1585 16.5469 25.1585C16.6473 25.1473 16.7366 25.2031 16.7366 25.2812ZM17.3839 25.1696C17.3951 25.2366 17.3281 25.3036 17.2277 25.3259C17.1272 25.3482 17.0379 25.3036 17.0268 25.2366C17.0156 25.1585 17.0826 25.0915 17.183 25.0692C17.2835 25.058 17.3728 25.1027 17.3839 25.1696Z" fill="#141414"/>
</svg>
