<svg width="40" height="40" viewBox="0 0 40 40" fill="none" xmlns="http://www.w3.org/2000/svg">
<path fill-rule="evenodd" clip-rule="evenodd" d="M20 40C31.0457 40 40 31.0457 40 20C40 8.9543 31.0457 0 20 0C8.9543 0 0 8.9543 0 20C0 31.0457 8.9543 40 20 40Z" fill="white"/>
<path d="M22.4286 19.8571C22.4286 21.4308 21.1451 22.7143 19.5714 22.7143C17.9978 22.7143 16.7143 21.4308 16.7143 19.8571C16.7143 18.2835 17.9978 17 19.5714 17C21.1451 17 22.4286 18.2835 22.4286 19.8571ZM23.9688 19.8571C23.9688 17.4241 22.0045 15.4598 19.5714 15.4598C17.1384 15.4598 15.1741 17.4241 15.1741 19.8571C15.1741 22.2902 17.1384 24.2545 19.5714 24.2545C22.0045 24.2545 23.9688 22.2902 23.9688 19.8571ZM25.1741 15.2812C25.1741 14.7121 24.7165 14.2545 24.1473 14.2545C23.5781 14.2545 23.1205 14.7121 23.1205 15.2812C23.1205 15.8504 23.5781 16.308 24.1473 16.308C24.7165 16.308 25.1741 15.8504 25.1741 15.2812ZM19.5714 12.8259C20.8214 12.8259 23.5 12.7254 24.6272 13.1719C25.0179 13.3281 25.308 13.5179 25.6094 13.8192C25.9107 14.1205 26.1004 14.4107 26.2567 14.8013C26.7031 15.9286 26.6027 18.6071 26.6027 19.8571C26.6027 21.1071 26.7031 23.7857 26.2567 24.9129C26.1004 25.3036 25.9107 25.5938 25.6094 25.8951C25.308 26.1964 25.0179 26.3862 24.6272 26.5424C23.5 26.9888 20.8214 26.8884 19.5714 26.8884C18.3214 26.8884 15.6429 26.9888 14.5156 26.5424C14.125 26.3862 13.8348 26.1964 13.5335 25.8951C13.2321 25.5938 13.0424 25.3036 12.8862 24.9129C12.4397 23.7857 12.5402 21.1071 12.5402 19.8571C12.5402 18.6071 12.4397 15.9286 12.8862 14.8013C13.0424 14.4107 13.2321 14.1205 13.5335 13.8192C13.8348 13.5179 14.125 13.3281 14.5156 13.1719C15.6429 12.7254 18.3214 12.8259 19.5714 12.8259ZM28.1429 19.8571C28.1429 18.6741 28.154 17.5022 28.0871 16.3192C28.0201 14.9464 27.7076 13.7299 26.7031 12.7254C25.6987 11.721 24.4821 11.4085 23.1094 11.3415C21.9263 11.2746 20.7545 11.2857 19.5714 11.2857C18.3884 11.2857 17.2165 11.2746 16.0335 11.3415C14.6607 11.4085 13.4442 11.721 12.4397 12.7254C11.4353 13.7299 11.1228 14.9464 11.0558 16.3192C10.9888 17.5022 11 18.6741 11 19.8571C11 21.0402 10.9888 22.2121 11.0558 23.3951C11.1228 24.7679 11.4353 25.9844 12.4397 26.9888C13.4442 27.9933 14.6607 28.3058 16.0335 28.3728C17.2165 28.4397 18.3884 28.4286 19.5714 28.4286C20.7545 28.4286 21.9263 28.4397 23.1094 28.3728C24.4821 28.3058 25.6987 27.9933 26.7031 26.9888C27.7076 25.9844 28.0201 24.7679 28.0871 23.3951C28.154 22.2121 28.1429 21.0402 28.1429 19.8571Z" fill="#141414"/>
</svg>
