<svg width="40" height="40" viewBox="0 0 40 40" fill="none" xmlns="http://www.w3.org/2000/svg">
<path fill-rule="evenodd" clip-rule="evenodd" d="M20 40C31.0457 40 40 31.0457 40 20C40 8.9543 31.0457 0 20 0C8.9543 0 0 8.9543 0 20C0 31.0457 8.9543 40 20 40Z" fill="white"/>
<path d="M12.4107 22.904L15.4129 20.8951L19.1406 23.3839V27.3906L12.4107 22.904ZM11.7188 21.2969V18.4174L13.8728 19.8571L11.7188 21.2969ZM20.8594 27.3906V23.3839L24.5871 20.8951L27.5893 22.904L20.8594 27.3906ZM20 21.8884L16.9643 19.8571L20 17.8259L23.0357 19.8571L20 21.8884ZM15.4129 18.8192L12.4107 16.8103L19.1406 12.3237V16.3304L15.4129 18.8192ZM26.1272 19.8571L28.2813 18.4174V21.2969L26.1272 19.8571ZM24.5871 18.8192L20.8594 16.3304V12.3237L27.5893 16.8103L24.5871 18.8192ZM30 16.8103C30 16.5312 29.8549 16.2522 29.6205 16.096L20.4799 10.0022C20.3348 9.91295 20.1674 9.85714 20 9.85714C19.8326 9.85714 19.6652 9.91295 19.5201 10.0022L10.3795 16.096C10.1451 16.2522 10 16.5312 10 16.8103V22.904C10 23.183 10.1451 23.4621 10.3795 23.6183L19.5201 29.7121C19.6652 29.8013 19.8326 29.8571 20 29.8571C20.1674 29.8571 20.3348 29.8013 20.4799 29.7121L29.6205 23.6183C29.8549 23.4621 30 23.183 30 22.904V16.8103Z" fill="#141414"/>
</svg>
