<svg width="40" height="40" viewBox="0 0 40 40" fill="none" xmlns="http://www.w3.org/2000/svg">
<path fill-rule="evenodd" clip-rule="evenodd" d="M20 40C31.0457 40 40 31.0457 40 20C40 8.9543 31.0457 0 20 0C8.9543 0 0 8.9543 0 20C0 31.0457 8.9543 40 20 40Z" fill="white"/>
<path d="M28.0804 14.4107C27.433 14.6897 26.7299 14.8906 26.0045 14.9688C26.7522 14.5223 27.3214 13.8192 27.5893 12.9821C26.8973 13.3951 26.1161 13.6964 25.3013 13.8527C24.6429 13.1496 23.7054 12.7143 22.6674 12.7143C20.6696 12.7143 19.0625 14.3326 19.0625 16.3192C19.0625 16.5982 19.096 16.8772 19.1518 17.1451C16.1607 16.9888 13.4933 15.5603 11.7188 13.3728C11.4062 13.9085 11.2277 14.5223 11.2277 15.192C11.2277 16.442 11.8638 17.5469 12.8348 18.1942C12.2433 18.1719 11.6853 18.0045 11.2054 17.7366C11.2054 17.7478 11.2054 17.7701 11.2054 17.7812C11.2054 19.5335 12.4442 20.9844 14.096 21.3192C13.7946 21.3973 13.471 21.442 13.1473 21.442C12.9129 21.442 12.6897 21.4196 12.4665 21.3862C12.9241 22.8147 14.2522 23.8527 15.8371 23.8862C14.5982 24.8571 13.0469 25.4263 11.3616 25.4263C11.0603 25.4263 10.7812 25.4152 10.4911 25.3817C12.0871 26.4085 13.9844 27 16.0268 27C22.6562 27 26.2835 21.5089 26.2835 16.7433C26.2835 16.5871 26.2835 16.4308 26.2723 16.2746C26.9754 15.7612 27.5893 15.125 28.0804 14.4107Z" fill="#141414"/>
</svg>
